<?xml version="1.0" standalone="no"?>
<!DOCTYPE svg PUBLIC "-//W3C//DTD SVG 20010904//EN"
 "http://www.w3.org/TR/2001/REC-SVG-20010904/DTD/svg10.dtd">
<svg version="1.0" xmlns="http://www.w3.org/2000/svg"
 width="700.000000pt" height="700.000000pt" viewBox="0 0 700.000000 700.000000"
 preserveAspectRatio="xMidYMid meet">
<metadata>
Created by potrace 1.11, written by Peter Selinger 2001-2013
</metadata>
<g transform="translate(0.000000,700.000000) scale(0.100000,-0.100000)"
fill="#000000" stroke="none">
<path d="M825 5832 c-404 -28 -733 -318 -810 -713 -12 -63 -14 -312 -12 -1644
1 -863 5 -1579 9 -1590 3 -11 9 -33 13 -50 59 -257 262 -495 506 -595 107 -44
159 -57 274 -68 117 -11 3364 -5 3420 6 231 47 395 145 549 326 74 87 154 275
174 406 5 36 10 278 10 538 0 261 2 475 4 477 2 2 215 -148 473 -332 259 -185
493 -352 520 -371 28 -20 154 -110 280 -200 127 -91 257 -184 290 -207 119
-83 247 -86 356 -7 48 35 95 105 109 162 7 32 10 495 8 1555 l-3 1510 -23 46
c-61 125 -209 195 -337 160 -55 -14 -61 -19 -915 -629 -415 -297 -756 -539
-758 -537 -1 1 -4 229 -5 506 -3 488 -4 507 -26 589 -95 355 -376 606 -736
656 -46 7 -3281 12 -3370 6z m3354 -599 c41 -13 69 -32 107 -70 96 -95 88 51
89 -1643 0 -817 -3 -1507 -8 -1535 -16 -89 -70 -159 -161 -208 l-41 -22 -1685
0 -1685 0 -51 27 c-60 31 -109 84 -138 147 l-21 46 0 1525 c0 1522 0 1525 21
1570 38 83 108 146 185 169 21 6 654 10 1683 10 1544 1 1653 0 1705 -16z
m2237 -1732 c0 -618 -3 -888 -10 -883 -6 3 -270 191 -586 417 -317 226 -593
423 -614 437 l-38 26 64 47 c70 52 1181 845 1183 845 1 0 1 -400 1 -889z"/>
</g>
</svg>
